# xmcd
#
# Track frame offsets:
#	150
#	25064
#	41032
#	48554
#	69035
#	75271
#	97743
#	105603
#	130239
#	142710
#	167409
#	174401
#	190793
#	196361
#	220753
#	231154
#	260640
#
# Disc length: 3774 seconds
#
# Revision: 1
# Processed by: cddbd v1.5.1PL0 Copyright (c) Steve Scherf et al.
# Submitted via: CDex 1.50Beta5
#
DISCID=d30ebc11
DTITLE=Nitro+ - ドラマCD ブッチャケ!ハローワールド
DYEAR=1900
DGENRE=
TTITLE0=「はじまり、はじまりぃ〜♪」
TTITLE1=奈都美クラスタ「シュレティンガーの猫BOX」
TTITLE2=楽屋裏その一
TTITLE3=薫クラスタ「和樹のアドバイス」
TTITLE4=楽屋裏そのニ
TTITLE5=千絵梨クラスタ「じゃー、マネー」
TTITLE6=楽屋裏その三
TTITLE7=深佳クラスタ「お金を集める方法」
TTITLE8=楽屋裏その四
TTITLE9=若佳菜クラスタ「オーバードライブ」
TTITLE10=楽屋裏その五
TTITLE11=報告クラスタ「これは重要な感情の情報」
TTITLE12=楽屋裏その六
TTITLE13=佐和美クラスタ「今の感想」
TTITLE14=楽屋裏その七
TTITLE15=純子クラスタ「相棒」
TTITLE16=楽屋裏その八 遥香クラスタ「戸惑い」
EXTD=
EXTT0=
EXTT1=
EXTT2=
EXTT3=
EXTT4=
EXTT5=
EXTT6=
EXTT7=
EXTT8=
EXTT9=
EXTT10=
EXTT11=
EXTT12=
EXTT13=
EXTT14=
EXTT15=
EXTT16=
PLAYORDER=
